<svg xmlns="http://www.w3.org/2000/svg" xmlns:xlink="http://www.w3.org/1999/xlink" width="56.857" height="56.853" viewBox="0 0 56.857 56.853">
  <defs>
    <clipPath id="clip-path">
      <path id="Path_3113" data-name="Path 3113" d="M611.46-8834.246h-2.066a11.659,11.659,0,0,0-1.417-3.425l1.653-1.653a.67.67,0,0,0,.177-.472.668.668,0,0,0-.177-.472l-2.3-2.3a.644.644,0,0,0-.886,0l-1.712,1.712a11.719,11.719,0,0,0-3.07-1.3v-2.185a.655.655,0,0,0-.649-.649h-3.188a.655.655,0,0,0-.649.649v2.126a9.538,9.538,0,0,0-3.188,1.3l-1.83-1.83a.642.642,0,0,0-.885,0l-2.3,2.3a.67.67,0,0,0-.177.473.669.669,0,0,0,.177.472l1.771,1.771a10.193,10.193,0,0,0-1.476,3.484H587.2a.655.655,0,0,0-.649.649v3.188a.656.656,0,0,0,.649.65h2.066a9.768,9.768,0,0,0,1.3,3.129l-1.653,1.653a.668.668,0,0,0-.177.472.67.67,0,0,0,.177.472l2.3,2.3a.671.671,0,0,0,.472.178.67.67,0,0,0,.472-.178l1.594-1.594a10.506,10.506,0,0,0,3.542,1.477v1.83a.655.655,0,0,0,.649.648h3.188a.655.655,0,0,0,.649-.648v-1.89a10.721,10.721,0,0,0,3.365-1.417l1.358,1.358a.67.67,0,0,0,.472.177.67.67,0,0,0,.472-.177l2.243-2.244a.669.669,0,0,0,.177-.472.674.674,0,0,0-.177-.474l-1.417-1.416a10.968,10.968,0,0,0,1.3-3.187h2.066a.656.656,0,0,0,.649-.65v-3.187A1.019,1.019,0,0,0,611.46-8834.246Zm-12.162,8.561a6.324,6.324,0,0,1-6.317-6.317,6.375,6.375,0,0,1,6.317-6.376,6.324,6.324,0,0,1,6.317,6.317A6.337,6.337,0,0,1,599.3-8825.686Z" fill="none"/>
    </clipPath>
    <clipPath id="clip-path-2">
      <path id="Path_3112" data-name="Path 3112" d="M0,0H1440V-9808H0Z" fill="none"/>
    </clipPath>
  </defs>
  <g id="noun_service_1078238" transform="translate(-0.472 -0.472)">
    <path id="Path" d="M41.031,36.722,43.1,37.9l.059-.118a23.491,23.491,0,0,0,4.428-13.815A23.686,23.686,0,0,0,23.851,0a23.851,23.851,0,0,0,0,47.7,21.722,21.722,0,0,0,6.553-.945l.118-.059-.472-2.362-.177.059a21.822,21.822,0,0,1-6.14.945,21.369,21.369,0,1,1,17.3-8.738Z" transform="translate(5.136 4.841)" fill="#fff"/>
    <path id="Path-2" data-name="Path" d="M48.647,8.383A28.078,28.078,0,0,0,28.515,0,26.976,26.976,0,0,0,20.9,1.063h-.118l.413,2.184h.177a27.091,27.091,0,0,1,7.144-1A26.242,26.242,0,1,1,2.243,28.4,25.924,25.924,0,0,1,7.085,13.224l.118-.118L5.254,11.985,5.2,12.1A28.413,28.413,0,1,0,56.854,28.456,27.637,27.637,0,0,0,48.647,8.383Z" transform="translate(0.472 0.472)" fill="#fff"/>
    <path id="Shape" d="M11.394,25.622a.655.655,0,0,1-.649-.649V23.143A10.469,10.469,0,0,1,7.2,21.667L5.609,23.26a.718.718,0,0,1-.945,0l-2.3-2.3a.717.717,0,0,1,0-.944l1.653-1.653a9.771,9.771,0,0,1-1.3-3.129H.65A.655.655,0,0,1,0,14.583V11.394a.655.655,0,0,1,.65-.649H2.715A10.178,10.178,0,0,1,4.191,7.262L2.421,5.491a.718.718,0,0,1,0-.945l2.3-2.3a.641.641,0,0,1,.886,0l1.83,1.83a9.543,9.543,0,0,1,3.189-1.3V.65A.655.655,0,0,1,11.276,0h3.188a.655.655,0,0,1,.65.65V2.834a11.7,11.7,0,0,1,3.07,1.3L19.9,2.421a.641.641,0,0,1,.886,0l2.3,2.3a.72.72,0,0,1,0,.944L21.431,7.321a11.651,11.651,0,0,1,1.417,3.424h2.066a1.02,1.02,0,0,1,.827.649v3.189a.655.655,0,0,1-.65.649H23.025a10.952,10.952,0,0,1-1.3,3.188l1.417,1.417a.717.717,0,0,1,0,.944L20.9,23.025a.718.718,0,0,1-.945,0L18.6,21.667a10.691,10.691,0,0,1-3.365,1.417v1.889a.655.655,0,0,1-.649.649Z" transform="translate(16.117 16.294)" fill="none"/>
    <g id="Group_3554" data-name="Group 3554" transform="translate(-570.428 8861.286)" clip-path="url(#clip-path)">
      <g id="Group_3553" data-name="Group 3553" clip-path="url(#clip-path-2)">
        <path id="Path_3111" data-name="Path 3111" d="M581.546-8849.991h35.74v35.622h-35.74Z" fill="#fff"/>
      </g>
    </g>
  </g>
</svg>
