<svg xmlns="http://www.w3.org/2000/svg" width="56.676" height="51.363" viewBox="0 0 56.676 51.363">
  <g id="noun_integration_3242445" transform="translate(-0.59 -0.886)">
    <g id="Group">
      <path id="Path" d="M50.56,22.423H37.218a12.3,12.3,0,0,0-23.887-.012H0a2.011,2.011,0,0,1,1.547-1.748L5.4,19.719a2.111,2.111,0,0,0,1.476-1.311,10.876,10.876,0,0,1,.484-1.216,2.1,2.1,0,0,0-.071-1.984L5.2,11.819a2.053,2.053,0,0,1,.319-2.527L9.269,5.538a2.036,2.036,0,0,1,2.515-.3l3.377,2.078a2.191,2.191,0,0,0,2.007.083c.39-.177.779-.354,1.193-.5a2.112,2.112,0,0,0,1.322-1.464l.945-3.873a2.038,2.038,0,0,1,2-1.57h5.29A2.061,2.061,0,0,1,29.92,1.57l.921,3.873A2.1,2.1,0,0,0,32.2,6.9c.413.153.8.331,1.193.508A2.191,2.191,0,0,0,35.4,7.321l3.377-2.078a2.038,2.038,0,0,1,2.515.3l3.755,3.755a2.066,2.066,0,0,1,.3,2.515l-2.066,3.377a2.076,2.076,0,0,0-.094,1.984,11.821,11.821,0,0,1,.508,1.24,2.111,2.111,0,0,0,1.476,1.311l3.849.945A2.012,2.012,0,0,1,50.56,22.423Z" transform="translate(3.649 0.886)" fill="#fff"/>
      <path id="Path-2" data-name="Path" d="M56.676.8a.791.791,0,0,1-.791.791H47.4c.277,3.3-.891,6.465,1.877,9.234l1.736,1.747h.012a2.682,2.682,0,0,1,1.535-.472,2.787,2.787,0,1,1-2.775,2.8,2.748,2.748,0,0,1,.224-1.086V13.8l-1.854-1.854C44.8,8.6,46.106,4.725,45.813,1.594H39.921v16.2a1.305,1.305,0,0,0,1.311,1.3h3.117a2.769,2.769,0,1,1-.071,1.594H41.232a2.9,2.9,0,0,1-2.893-2.893V1.594h-5.7V20.108a2.767,2.767,0,1,1-1.582-.012V1.594H25.528V15.173a5.67,5.67,0,0,1-1.677,4.05L19.884,23.19a2.781,2.781,0,1,1-2.515-1.582,2.7,2.7,0,0,1,1.44.413l3.92-3.92a4.069,4.069,0,0,0,1.216-2.928V1.594h-5.88V8.572a5.7,5.7,0,0,1-1.677,4.05l-3.164,3.164a2.715,2.715,0,0,1,.248,1.157,2.787,2.787,0,1,1-2.8-2.8,2.761,2.761,0,0,1,1.5.449L15.267,11.5a4.106,4.106,0,0,0,1.2-2.928V1.594H10.863V6.541a2.817,2.817,0,0,1-2.81,2.81H6.305a2.789,2.789,0,1,1,.047-1.582h1.7A1.235,1.235,0,0,0,9.281,6.541V1.594H.791A.794.794,0,0,1,0,.791.723.723,0,0,1,.236.248,1.069,1.069,0,0,1,.354.142.693.693,0,0,1,.791,0L55.885.012A.791.791,0,0,1,56.676.8Z" transform="translate(0.59 25.068)" fill="#fff"/>
    </g>
  </g>
</svg>
