<svg xmlns="http://www.w3.org/2000/svg" width="41.188" height="41.222" viewBox="0 0 41.188 41.222">
  <g id="noun_search_file_1078961_2_" data-name="noun_search file_1078961 (2)" transform="translate(3.594 -2.397)">
    <g id="Group_9519" data-name="Group 9519" transform="translate(-3.594 2.397)">
      <path id="Path_8777" data-name="Path 8777" d="M28.917,26.033l-2.677-2.677a7.426,7.426,0,0,0,1.236-4.119,8.237,8.237,0,1,0-8.237,8.237,7.426,7.426,0,0,0,4.119-1.236l2.677,2.677a1.938,1.938,0,0,0,2.883,0A1.991,1.991,0,0,0,28.917,26.033Zm-13.8-6.8a4.119,4.119,0,1,1,4.119,4.119A4.131,4.131,0,0,1,15.119,19.237Z" transform="translate(11.653 11.653)" fill="#fff"/>
      <path id="Path_8778" data-name="Path 8778" d="M30.891,0H2.059A1.946,1.946,0,0,0,0,2.059V39.128a1.946,1.946,0,0,0,2.059,2.059H24.095a12.342,12.342,0,0,1,6.8-22.653,7.006,7.006,0,0,1,2.059.206V2.059A1.946,1.946,0,0,0,30.891,0ZM16.475,16.475H6.178a2.064,2.064,0,0,1-2.059-2.059,1.946,1.946,0,0,1,2.059-2.059h10.3a1.946,1.946,0,0,1,2.059,2.059A2.064,2.064,0,0,1,16.475,16.475Zm10.3-8.238H6.178A2.064,2.064,0,0,1,4.119,6.178,1.946,1.946,0,0,1,6.178,4.119H26.772a1.946,1.946,0,0,1,2.059,2.059A2.064,2.064,0,0,1,26.772,8.238Z" fill="#fff"/>
    </g>
  </g>
</svg>
