<svg id="noun_Wallet_4158471_1_" data-name="noun_Wallet_4158471 (1)" xmlns="http://www.w3.org/2000/svg" width="37" height="30.833" viewBox="0 0 37 30.833">
  <path id="Shape" d="M4.625,30.833A4.625,4.625,0,0,1,0,26.208V4.625A4.625,4.625,0,0,1,4.625,0h27.75A4.625,4.625,0,0,1,37,4.625V7.893a2.67,2.67,0,0,0-.956-.184H26.024A7.245,7.245,0,0,0,18.5,14.646a7.245,7.245,0,0,0,7.523,6.937H36.044A2.65,2.65,0,0,0,37,21.4v4.81a4.625,4.625,0,0,1-4.625,4.625ZM21.846,14.646a4.023,4.023,0,0,1,4.178-3.854h9.25V18.5h-9.25c-.053,0-.107,0-.159,0A4.024,4.024,0,0,1,21.846,14.646Z" fill="#e51937"/>
</svg>
