<svg id="Icons_bidding" data-name="Icons/bidding" xmlns="http://www.w3.org/2000/svg" width="36" height="34.56" viewBox="0 0 36 34.56">
  <g id="icons_Bid-Solo" data-name="icons/Bid-Solo" transform="translate(0 0)">
    <path id="Fill_1" data-name="Fill 1" d="M26.843,29.279a3.107,3.107,0,0,1-2.128-1.006,19.067,19.067,0,0,0-1.694-1.667,1.491,1.491,0,0,1-.178-.169c-1.22-1.334-2.556-2.552-3.829-3.835-.771-.777-1.51-1.588-2.355-2.291-.275-.231-.493-.527-.745-.786-1.027-1.052-2.111-2.041-3.126-3.107-.47-.5-.993-.951-1.474-1.444-.169-.174-.275-.133-.428.017-.4.4-.832.781-1.235,1.186-.174.176-.286.172-.453,0-.769-.811-1.592-1.571-2.384-2.361-1.529-1.523-3.041-3.062-4.6-4.549C1.5,8.587.872,7.833.142,7.179c-.216-.191-.163-.32.013-.512C1.15,5.584,2.24,4.6,3.276,3.556Q4.616,2.206,5.969.862A6.063,6.063,0,0,0,6.747.11c.148-.21.271-.078.394.047.94.953,1.9,1.9,2.85,2.836q2.265,2.233,4.521,4.477c.576.578,1.15,1.158,1.736,1.726.18.172.172.286,0,.453-.33.311-.64.648-.966.966-.142.136-.184.239-.021.4,1.26,1.247,2.484,2.528,3.788,3.731.292.267.544.576.82.862.987,1.021,2.022,2,3.028,3,1.412,1.406,2.819,2.821,4.254,4.2.5.487.978,1,1.484,1.48a3.7,3.7,0,0,1,.921,1.3,2.267,2.267,0,0,1-.087,1.959,3.125,3.125,0,0,1-1.309,1.41,3.27,3.27,0,0,1-1.315.311" transform="translate(4.427 4.491)" fill="#e51937"/>
    <path id="Fill_4" data-name="Fill 4" d="M3.768.005A1.79,1.79,0,0,1,5.2.594c.839.875,1.728,1.7,2.584,2.554q1.992,1.988,3.994,3.964a2.006,2.006,0,0,1,.066,2.986c-.682.788-1.5,1.436-2.207,2.192-.152.165-.258.127-.4-.015C8.622,11.652,8,11.038,7.383,10.424,6.347,9.4,5.322,8.361,4.283,7.345,2.932,6.025,1.612,4.679.261,3.361c-.347-.339-.345-.347-.013-.678.7-.7,1.34-1.457,2.1-2.1A1.926,1.926,0,0,1,3.768.005" transform="translate(12.89)" fill="#e51937"/>
    <path id="Fill_6" data-name="Fill 6" d="M0,3.517A2.332,2.332,0,0,1,.671,2.051c.637-.667,1.3-1.3,1.948-1.957.178-.178.277-.072.4.051C3.81.937,4.6,1.725,5.394,2.517c.987.991,1.976,1.98,2.98,2.956,1.243,1.211,2.444,2.465,3.706,3.657.222.212.231.343,0,.557-.654.614-1.279,1.26-1.925,1.883a1.954,1.954,0,0,1-2.8-.015c-.608-.612-1.256-1.18-1.844-1.813-.983-1.059-2.069-2.016-3.068-3.06C1.908,6.119,1.321,5.6.775,5.041A2.567,2.567,0,0,1,0,3.517" transform="translate(0 12.975)" fill="#e51937"/>
  </g>
</svg>
