<svg xmlns="http://www.w3.org/2000/svg" xmlns:xlink="http://www.w3.org/1999/xlink" width="38.999" height="30.333" viewBox="0 0 38.999 30.333">
  <defs>
    <clipPath id="clip-path">
      <path id="Clip_2" data-name="Clip 2" d="M0,0H39V30.333H0Z" transform="translate(0.001)" fill="none"/>
    </clipPath>
  </defs>
  <g id="Limit_ic" transform="translate(-0.001)" opacity="0.9">
    <path id="Clip_2-2" data-name="Clip 2" d="M0,0H39V30.333H0Z" transform="translate(0.001)" fill="none"/>
    <g id="Limit_ic-2" data-name="Limit_ic" clip-path="url(#clip-path)">
      <path id="Fill_1" data-name="Fill 1" d="M34.5,30.334H4.5A2.139,2.139,0,0,1,2.644,29.3a19.5,19.5,0,1,1,33.71,0A2.14,2.14,0,0,1,34.5,30.334ZM24.912,5.956A1.62,1.62,0,0,0,23.375,7.07L19.223,19.528a4.339,4.339,0,0,0-2.877,1.346A4.265,4.265,0,0,0,15.767,26h7.465a4.264,4.264,0,0,0,.6-2.167,4.324,4.324,0,0,0-1.527-3.277L26.457,8.1a1.632,1.632,0,0,0-1.545-2.142Z" fill="#e51937"/>
    </g>
  </g>
</svg>
