<svg xmlns="http://www.w3.org/2000/svg" width="32" height="33.952" viewBox="0 0 32 33.952">
  <g id="building" transform="translate(-14.716)">
    <path id="Path_2468" data-name="Path 2468" d="M45.721,31.962H43.1V.995A1,1,0,0,0,42.1,0H19.329a1,1,0,0,0-.995.995V31.962H15.711a.995.995,0,0,0,0,1.989H45.721a.995.995,0,1,0,0-1.989Zm-18.4,0V25.181h6.781v6.781Zm8.77,0V24.186a1,1,0,0,0-.995-.995h-8.77a1,1,0,0,0-.995.995v7.776H20.324V1.989H41.108V31.962Z" transform="translate(0)" fill="#404040"/>
    <path id="Path_2473" data-name="Path 2473" d="M40.548,1.725c.828-.1.708,1.432.708,1.432V31.9h-5.39s-.021-7.406,0-8.046-.424-.651-.424-.651H26.221c-.924,0-.7.651-.7.651v8.682H20V3.2s-.1-1.511.417-1.474S40.548,1.725,40.548,1.725Z" fill="#b7bfc7"/>
    <path id="Path_2469" data-name="Path 2469" d="M141.109,66.309h-4.874a1,1,0,0,0-.995.995v4.874a1,1,0,0,0,.995.995h4.874a1,1,0,0,0,.995-.995V67.3A1,1,0,0,0,141.109,66.309Zm-.995,4.874h-2.885V68.3h2.885Z" transform="translate(-112.532 -61.912)" fill="#404040"/>
    <path id="Path_2470" data-name="Path 2470" d="M279.121,66.309h-4.874a1,1,0,0,0-.995.995v4.874a1,1,0,0,0,.995.995h4.874a1,1,0,0,0,.995-.995V67.3A1,1,0,0,0,279.121,66.309Zm-.995,4.874h-2.885V68.3h2.885Z" transform="translate(-241.392 -61.912)" fill="#404040"/>
    <path id="Path_2471" data-name="Path 2471" d="M141.109,205.954h-4.874a1,1,0,0,0-.995.995v4.874a1,1,0,0,0,.995.995h4.874a1,1,0,0,0,.995-.995v-4.874A1,1,0,0,0,141.109,205.954Zm-.995,4.874h-2.885v-2.885h2.885Z" transform="translate(-112.532 -192.297)" fill="#404040"/>
    <path id="Path_2472" data-name="Path 2472" d="M279.121,205.954h-4.874a1,1,0,0,0-.995.995v4.874a1,1,0,0,0,.995.995h4.874a1,1,0,0,0,.995-.995v-4.874A1,1,0,0,0,279.121,205.954Zm-.995,4.874h-2.885v-2.885h2.885Z" transform="translate(-241.392 -192.297)" fill="#404040"/>
    <path id="Path_2475" data-name="Path 2475" d="M27.535,15.612H24.757v2.964h2.778Z" fill="#fff"/>
    <path id="Path_2476" data-name="Path 2476" d="M27.581,15.655H24.718V18.53h2.863Z" transform="translate(0 -9.266)" fill="#fff"/>
    <path id="Path_2477" data-name="Path 2477" d="M27.758,15.612H24.864v2.964h2.894Z" transform="translate(9 -9.266)" fill="#fff"/>
    <path id="Path_2478" data-name="Path 2478" d="M27.723,15.615H24.856v2.913h2.867Z" transform="translate(9)" fill="#fff"/>
  </g>
</svg>
