<svg xmlns="http://www.w3.org/2000/svg" width="39.566" height="45.591" viewBox="0 0 39.566 45.591">
  <g id="necklace" transform="translate(-33.936 5.2)">
    <g id="Group_3179" data-name="Group 3179" transform="translate(34.136 -5)">
      <path id="Path_2809" data-name="Path 2809" d="M59.281,39.422a6.564,6.564,0,0,1,1.066-2.817.69.69,0,0,0,.036-.076C72.567,29.38,73.295,13.758,73.3,13.585a.752.752,0,0,0-.555-.754,14.34,14.34,0,0,1-4.016-1.808A2.256,2.256,0,0,0,65.654,8.46a18.789,18.789,0,0,1-2.33-3.047c-.013-.02-.026-.04-.04-.059A16.234,16.234,0,0,1,61.976,2.8C61.689.881,57.568,0,53.719,0s-7.971.881-8.257,2.8a16.234,16.234,0,0,1-1.308,2.553c-.014.019-.027.039-.04.059a18.789,18.789,0,0,1-2.33,3.047,2.253,2.253,0,0,0-3.075,2.563,14.344,14.344,0,0,1-4.016,1.808.752.752,0,0,0-.555.754c.006.173.734,15.794,12.918,22.944a.7.7,0,0,0,.036.076,6.644,6.644,0,0,1,1.062,2.817c-4.8.448-7.238,1.373-7.238,2.756,0,2.867,10.666,3.013,12.8,3.013s12.8-.145,12.8-3.013C66.523,40.8,64.084,39.869,59.281,39.422Zm7.242-29.63a.753.753,0,1,1-.753.753A.754.754,0,0,1,66.523,9.791Zm-1.506,3.389a1.13,1.13,0,1,1-1.13-1.13A1.13,1.13,0,0,1,65.016,13.181ZM53.719,1.506c4.366,0,6.624,1.08,6.776,1.506-.152.426-2.41,1.506-6.776,1.506-4.406,0-6.665-1.1-6.78-1.5C47.054,2.606,49.313,1.506,53.719,1.506ZM45.372,6.243,45.4,6.2h0c.406-.652.718-1.234.952-1.708a5.685,5.685,0,0,0,1.347.674.727.727,0,0,0,.165.058,19.271,19.271,0,0,0,5.852.8,19.271,19.271,0,0,0,5.852-.8.731.731,0,0,0,.162-.057,5.687,5.687,0,0,0,1.349-.675c.234.474.547,1.056.952,1.708h0l.031.046a20.273,20.273,0,0,0,2.478,3.234,2.23,2.23,0,0,0-.28,1.068c0,.013,0,.025,0,.038a2.6,2.6,0,0,0-.38-.038,2.631,2.631,0,0,0-2.61,2.375,2.977,2.977,0,0,0-.78-.115,3.012,3.012,0,0,0-2.959,2.484,3.313,3.313,0,0,0-3.819,1.06,3.312,3.312,0,0,0-3.819-1.06A3.012,3.012,0,0,0,46.94,12.8a2.973,2.973,0,0,0-.78.115,2.631,2.631,0,0,0-2.61-2.375,2.594,2.594,0,0,0-.38.038c0-.013,0-.025,0-.038a2.231,2.231,0,0,0-.28-1.068A20.279,20.279,0,0,0,45.372,6.243ZM62,15.817A1.506,1.506,0,1,1,60.5,14.311,1.506,1.506,0,0,1,62,15.817Zm-3.766,2.636a1.883,1.883,0,1,1-1.883-1.883A1.883,1.883,0,0,1,58.238,18.453Zm-5.272,0a1.883,1.883,0,1,1-1.883-1.883A1.883,1.883,0,0,1,52.965,18.453Zm-4.519-2.636a1.506,1.506,0,1,1-1.506-1.506A1.506,1.506,0,0,1,48.446,15.817Zm-4.9-3.766a1.13,1.13,0,1,1-1.13,1.13A1.13,1.13,0,0,1,43.551,12.051Zm-2.636-2.26a.753.753,0,1,1-.753.753A.753.753,0,0,1,40.914,9.791Zm-5.23,4.318A15.857,15.857,0,0,0,39.509,12.3a2.237,2.237,0,0,0,1.405.5c.013,0,.025,0,.038,0a2.607,2.607,0,0,0-.038.381,2.639,2.639,0,0,0,2.636,2.636,2.594,2.594,0,0,0,.38-.038c0,.013,0,.025,0,.038A3.016,3.016,0,0,0,46.94,18.83a2.973,2.973,0,0,0,.78-.115,3.363,3.363,0,0,0,6,1.843,3.363,3.363,0,0,0,6-1.843,2.977,2.977,0,0,0,.78.115,3.016,3.016,0,0,0,3.013-3.013c0-.013,0-.025,0-.038a2.6,2.6,0,0,0,.38.038,2.639,2.639,0,0,0,2.636-2.636,2.607,2.607,0,0,0-.038-.381c.013,0,.025,0,.038,0a2.237,2.237,0,0,0,1.405-.5,15.849,15.849,0,0,0,3.825,1.809c-.285,3.14-2.354,18.119-16.016,22.915a6.155,6.155,0,0,1-4.037,0C38.058,32.235,35.973,17.25,35.685,14.109ZM53.719,43.685c-6.557,0-10.328-.924-11.178-1.5.476-.312,2.038-.9,5.635-1.249a6.251,6.251,0,0,1-.2,1.042.753.753,0,1,0,1.451.408,7.869,7.869,0,0,0-.15-4.717c.62.279,1.255.545,1.926.781a7.674,7.674,0,0,0,5.031,0c.671-.235,1.306-.5,1.925-.78a7.868,7.868,0,0,0-.15,4.717.753.753,0,1,0,1.451-.408,6.319,6.319,0,0,1-.2-1.042c3.6.348,5.16.938,5.636,1.25C64.047,42.761,60.275,43.685,53.719,43.685Z" transform="translate(-34.136 0)" fill="#404040" stroke="#404040" stroke-width="0.4"/>
      <path id="Path_2810" data-name="Path 2810" d="M26.083,2.99C26.083,2.277,23,1.646,19.7,1.6S13.03,2.277,13.03,2.99,16.41,4.4,19.7,4.451,26.083,3.7,26.083,2.99Z" fill="#b7bfc7"/>
      <path id="Path_2811" data-name="Path 2811" d="M1.748,14.24A32.652,32.652,0,0,0,4.9,25.065c3.018,6,8.885,12.229,14.732,12.136,5.422-.086,11.217-5.492,14.494-11.572A32.5,32.5,0,0,0,37.481,14.24l-3.765-1.758a1.305,1.305,0,0,0-1.239.581c-.546.723-.178,1.589-.945,2.312a3.047,3.047,0,0,1-2.125.578,3.388,3.388,0,0,1-1.042,2.253A4.293,4.293,0,0,1,25.774,19a3.817,3.817,0,0,1-2.41,2.874,4.031,4.031,0,0,1-3.8-.972,3.821,3.821,0,0,1-3.511.972A3.781,3.781,0,0,1,13.4,19a4.589,4.589,0,0,1-2.627-.795A4.6,4.6,0,0,1,9.56,15.953a4.107,4.107,0,0,1-2.177-.886,2.732,2.732,0,0,1-.441-2s-.526-.111-.979-.256a2.185,2.185,0,0,1-.594-.254Z" fill="#b7bfc7"/>
    </g>
  </g>
</svg>
