<?xml version="1.0" encoding="UTF-8"?>
<svg width="24px" height="24px" viewBox="0 0 24 24" version="1.1" xmlns="http://www.w3.org/2000/svg" xmlns:xlink="http://www.w3.org/1999/xlink">
    <title>AEFA5E0E-B666-4997-974E-760FD42E3C71</title>
    <defs>
        <filter id="filter-1">
            <feColorMatrix in="SourceGraphic" type="matrix" values="0 0 0 0 0.258824 0 0 0 0 0.290196 0 0 0 0 0.392157 0 0 0 1.000000 0"></feColorMatrix>
        </filter>
    </defs>
    <g id="Page-1" stroke="none" stroke-width="1" fill="none" fill-rule="evenodd" opacity="0.503115699">
        <g id="Home-" transform="translate(-1003.000000, -401.000000)">
            <g id="Group-4" transform="translate(384.000000, 268.000000)">
                <g id="Icons/White/Search" transform="translate(0.000000, 115.000000)" filter="url(#filter-1)">
                    <g transform="translate(619.000000, 18.000000)">
                        <path d="M23.5318537,21.28 L17.4327814,15.152 C18.5932806,13.5335404 19.2149261,11.591177 19.2096765,9.6 C19.2096765,4.304 14.9035074,0 9.60483826,0 C4.30616915,0 0,4.304 0,9.6 C0,14.896 4.30616915,19.2 9.60483826,19.2 C11.6858865,19.2 13.5748381,18.544 15.1596364,17.424 L21.2907248,23.52 C21.594878,23.84 22.0110877,24 22.4112893,24 C22.8114909,24 23.2437086,23.856 23.5318537,23.52 C23.8315696,23.2210486 24,22.8152152 24,22.392 C24,21.9687848 23.8315696,21.5629514 23.5318537,21.264 L23.5318537,21.28 Z M9.60483826,17.12 C5.45874974,17.12 2.08104829,13.744 2.08104829,9.6 C2.08104829,5.456 5.45874974,2.08 9.60483826,2.08 C13.7509268,2.08 17.1286282,5.456 17.1286282,9.6 C17.1286282,13.744 13.7509268,17.12 9.60483826,17.12 Z" id="Icons/Search" fill="#FFFFFF" fill-rule="nonzero"></path>
                    </g>
                </g>
            </g>
        </g>
    </g>
</svg>