<svg xmlns="http://www.w3.org/2000/svg" width="11" height="11" viewBox="0 0 11 11">
    <g fill="none" fill-rule="evenodd">
        <g fill="#FF422F">
            <g>
                <g>
                    <path d="M10.214 4.714H6.286V.786C6.286.35 5.935 0 5.5 0c-.434 0-.786.351-.786.786v3.928H.786C.35 4.714 0 5.065 0 5.5c0 .434.351.786.786.786h3.928v3.928c0 .435.351.786.786.786.434 0 .786-.351.786-.786V6.286h3.928c.435 0 .786-.351.786-.786 0-.434-.351-.786-.786-.786" transform="translate(-708 -1085) translate(394 1002) translate(314 83)"/>
                </g>
            </g>
        </g>
    </g>
</svg>
