<svg xmlns="http://www.w3.org/2000/svg" width="35.936" height="34.936" viewBox="0 0 35.936 34.936">
  <g id="box" transform="translate(0 -1)">
    <path id="Path_2479" data-name="Path 2479" d="M35.929,8.863a1.123,1.123,0,0,0-.641-.9L18.443,1.106a1.123,1.123,0,0,0-.95,0L.648,7.967a1.123,1.123,0,0,0-.641.9c0,.008-.007.116-.007.121V28.075a1.123,1.123,0,0,0,.706,1.043l16.845,6.738a1.122,1.122,0,0,0,.834,0L35.23,29.118a1.123,1.123,0,0,0,.706-1.043V8.984C35.936,8.978,35.93,8.871,35.929,8.863ZM17.968,2.594,32.679,8.863l-6.09,2.2L12.306,5Zm-8.4,3.689,14.062,5.965-5.661,2.264L3.948,8.9Zm-7.321,4.36,14.6,5.84V33.154l-14.6-5.84ZM19.091,33.154V16.482l14.6-5.84V27.315Z" transform="translate(0 0)" fill="#404040"/>
    <path id="Path_2480" data-name="Path 2480" d="M3.785,9.4l6.256-2.452L24.1,12.959l-5.618,2.292Z" transform="translate(-0.447 -0.706)" fill="#b7bfc7"/>
    <path id="Path_2481" data-name="Path 2481" d="M36.1,17.682l.007,16.677L21.5,28.53l.016-16.678Z" transform="translate(-19.254 -1.204)" fill="#b7bfc7"/>
  </g>
</svg>
