<svg xmlns="http://www.w3.org/2000/svg" width="26.705" height="31.322" viewBox="0 0 26.705 31.322">
  <g id="Subtraction_18" data-name="Subtraction 18" transform="translate(-9.246 55.044) rotate(-90)">
    <g id="Group_3048" data-name="Group 3048" transform="translate(55.044 9.246) rotate(90)">
      <g id="Group_1883" data-name="Group 1883" transform="translate(0 0)">
        <g id="Group_1882" data-name="Group 1882">
          <g id="Group_1880" data-name="Group 1880" transform="translate(0.812 25.843)">
            <g id="Group_1879" data-name="Group 1879">
              <path id="Path_1850" data-name="Path 1850" d="M3.213,2.274.742,2.527A1.189,1.189,0,0,0,2.042,3.6H3.626A.354.354,0,0,1,4,3.969c0,.1,0,.317,0,.317H2.026A1.97,1.97,0,0,1,0,2.1,2.013,2.013,0,0,1,2.118,0,1.8,1.8,0,0,1,3.932,1.367C4.052,1.867,3.782,2.21,3.213,2.274Zm-.456-.561a.746.746,0,0,0,.419-.132.325.325,0,0,0,.017-.332A1.137,1.137,0,0,0,2.11.635a1.268,1.268,0,0,0-1.365,1.3Z" transform="translate(0 1.162)" fill="#404040"/>
              <path id="Path_1851" data-name="Path 1851" d="M2.939,0c.235,0,.4.109.4.344s-.168.345-.4.345H1.218C.857.716.811,1.078.841,1.3a.276.276,0,0,0,.095.177,1.126,1.126,0,0,0,.51.164l1.309.231A.987.987,0,0,1,3.7,2.97c0,.966-.6,1.323-1.528,1.323H0s0-.24,0-.344C0,3.714.16,3.6.4,3.6H2.125c.671,0,.845-.206.844-.576,0-.335-.093-.458-.541-.534L1.1,2.277c-.671-.109-.963-.462-1-.913C.048.7.322,0,1.227,0Z" transform="translate(8.899 1.164)" fill="#404040"/>
              <path id="Path_1852" data-name="Path 1852" d="M3.576,1.511C3.576.764,3.374,0,2.267,0H.713C.47,0,.31.109.31.344s.16.345.4.345H2.158c.512,0,.681.118.681.478v.109c-.03.22-.278.273-.4.3C1.4,1.822,0,1.555,0,3.048c0,.8.679,1.268,1.612,1.268.011,0,.936.045,1.277-.421,0,0,0,.014,0,.04.023.236.135.359.376.359h.307ZM2.838,2.754c0,.73-.411.991-1.109.991-.629,0-.99-.227-.99-.731a.746.746,0,0,1,.7-.684c.38-.067.96-.093,1.4-.194Z" transform="translate(12.998 1.162)" fill="#404040"/>
              <path id="Path_1853" data-name="Path 1853" d="M3.577,1.511C3.577.764,3.374,0,2.267,0H.713C.47,0,.31.109.31.344s.16.345.4.345H2.158c.512,0,.681.118.681.478v.109c-.03.22-.278.273-.4.3C1.4,1.822,0,1.555,0,3.048c0,.8.679,1.268,1.612,1.268.011,0,.936.045,1.277-.421,0,0,0,.014,0,.04a.34.34,0,0,0,.375.359h.308ZM2.838,2.754c0,.73-.412.991-1.109.991-.63,0-.99-.227-.99-.731a.746.746,0,0,1,.7-.684c.38-.067.96-.093,1.4-.194Z" transform="translate(18.609 1.162)" fill="#404040"/>
              <path id="Path_1854" data-name="Path 1854" d="M.741,0H.327A.294.294,0,0,0,0,.325V4.312H0L0,5.455l.741,0Z" transform="translate(17.297)" fill="#404040"/>
              <path id="Path_1855" data-name="Path 1855" d="M2.114,4.79c-.562,0-.771-.025-.771-.436V1.828H2c.235,0,.4-.109.4-.344S2.231,1.14,2,1.14H1.343V0H1.028A1.534,1.534,0,0,0,.874.009.29.29,0,0,0,.6.332V1.14H.4c-.234,0-.4.109-.4.344s.169.344.4.344H.6V3.968h0v.545c0,.906.629.917,1.51.917H2.55s0-.2,0-.3C2.55,4.925,2.383,4.79,2.114,4.79Z" transform="translate(4.296 0.024)" fill="#404040"/>
              <path id="Path_1856" data-name="Path 1856" d="M2.114,4.79c-.562,0-.771-.025-.771-.436V1.828H2c.235,0,.4-.109.4-.344S2.232,1.14,2,1.14H1.343V0H1.027A1.538,1.538,0,0,0,.873.009.29.29,0,0,0,.6.332V1.14H.4c-.234,0-.4.109-.4.344s.169.344.4.344H.6V3.968h0v.545c0,.906.629.917,1.51.917H2.55s0-.2,0-.3C2.55,4.925,2.382,4.79,2.114,4.79Z" transform="translate(22.581 0.024)" fill="#404040"/>
              <path id="Path_1857" data-name="Path 1857" d="M.741,4.291V0L.326,0A.291.291,0,0,0,0,.329C0,.387,0,4.291,0,4.291Z" transform="translate(7.482 1.165)" fill="#404040"/>
              <path id="Path_1858" data-name="Path 1858" d="M.29.814C.47.814.564.819.663.726.741.654.742.525.742.377c0-.086,0-.377,0-.377H.325A.288.288,0,0,0,0,.327C0,.385,0,.814,0,.814Z" transform="translate(7.481 0.026)" fill="#404040"/>
            </g>
          </g>
          <g id="Group_1881" data-name="Group 1881">
            <path id="Path_1859" data-name="Path 1859" d="M9.108,17.169a2.391,2.391,0,0,1-1.093-.217c-1.378-.712-2.47-4.153-2.451-7.689a3.349,3.349,0,0,1,3.663-3.58,8.991,8.991,0,0,1,4.026,1.126c4.239,2.189,5.331,5.63,2.452,7.69a13.123,13.123,0,0,1-6.6,2.671M8.571,2.133a5.348,5.348,0,0,0-1.687.242c-1.906.586-2.66,2.365-2.513,4.839a30.878,30.878,0,0,0,1.483,6.9C6.48,16.01,6.908,17.2,7.686,17.6a1.776,1.776,0,0,0,.828.174,12.067,12.067,0,0,0,3.076-.7,30.831,30.831,0,0,0,6.486-2.789c2.1-1.31,3.119-2.956,2.493-4.85C20,7.577,17.788,5.462,14.763,3.9A14.24,14.24,0,0,0,8.571,2.133M.885,0C-.2,1.418-.231,3.752.493,6.643c1.016,4.074,2.772,8.19,3.59,10.939.942,2.811.948,4.253,1.314,4.442a.28.28,0,0,0,.13.027c.48,0,1.691-.752,4.252-1.526,2.714-.924,7.087-1.878,11-3.4,2.754-1.078,4.635-2.439,5.178-4.131a10.313,10.313,0,0,1-4.588,3c-3.912,1.528-8.284,2.481-11,3.4-2.56.776-3.769,1.528-4.251,1.528a.287.287,0,0,1-.132-.028c-.365-.188-.371-1.628-1.315-4.442C3.853,13.706,2.1,9.589,1.081,5.515A10.233,10.233,0,0,1,.885,0" transform="translate(0 2.698)" fill="#c0c20a"/>
            <path id="Path_1860" data-name="Path 1860" d="M4.659,0A6.8,6.8,0,0,0,2.487.31,3.568,3.568,0,0,0,0,2.7,3.639,3.639,0,0,1,1.9,1.44a6.789,6.789,0,0,1,2.179-.311c2.844,0,6.813,1.189,10.911,3.3,5.3,2.735,9.206,6.191,10.023,8.939a3.632,3.632,0,0,1,.061,2.312,3.573,3.573,0,0,0,.529-3.441c-.816-2.747-4.727-6.2-10.023-8.937C11.475,1.189,7.5,0,4.659,0" transform="translate(0.885)" fill="#adbe76"/>
            <path id="Path_1861" data-name="Path 1861" d="M7.924,19.346a1.777,1.777,0,0,1-.828-.174c-.778-.4-1.205-1.594-1.831-3.487a30.877,30.877,0,0,1-1.483-6.9c-.147-2.474.607-4.253,2.513-4.839A5.349,5.349,0,0,1,7.982,3.7a14.24,14.24,0,0,1,6.192,1.767c3.025,1.561,5.234,3.676,5.807,5.54.625,1.893-.391,3.539-2.493,4.85A30.83,30.83,0,0,1,11,18.647a12.067,12.067,0,0,1-3.076.7M4.371,0A6.79,6.79,0,0,0,2.192.311,3.639,3.639,0,0,0,.3,1.568a10.234,10.234,0,0,0,.2,5.515c1.018,4.074,2.772,8.191,3.59,10.938.943,2.814.95,4.254,1.315,4.442a.287.287,0,0,0,.132.028c.481,0,1.69-.752,4.251-1.528,2.715-.923,7.087-1.877,11-3.4a10.313,10.313,0,0,0,4.588-3,3.632,3.632,0,0,0-.061-2.312C24.488,9.5,20.578,6.039,15.282,3.3,11.184,1.189,7.215,0,4.371,0" transform="translate(0.59 1.129)" fill="#71911d"/>
          </g>
        </g>
      </g>
    </g>
  </g>
</svg>
