<svg xmlns="http://www.w3.org/2000/svg" width="51" height="20.402" viewBox="0 0 51 20.402">
  <g id="Group_2932" data-name="Group 2932" transform="translate(0)">
    <path id="Path_2467" data-name="Path 2467" d="M2279.845-10955v-6.824s-7.04-3.71-11.12-3.773-26.079,0-26.079,0l-3.139-2.188-3.42,1.766-5.26.771v7.657l4.731,2.592s.231-5.206,3.949-5.232,4.771,5.232,4.771,5.232h23.285s1-5.656,5.16-5.232,3.755,5.232,3.755,5.232Z" transform="translate(-2229.74 10971.272)" fill="#b7bfc7"/>
    <g id="surface1" transform="translate(0 0)">
      <path id="Path_2465" data-name="Path 2465" d="M243.4,86.891H240v1.7h3.4Zm0,0" transform="translate(-213.65 -79.241)" fill="#404040"/>
      <path id="Path_2466" data-name="Path 2466" d="M.729,5.6,6.5,4.776A29.133,29.133,0,0,1,9.775,3.042,28.624,28.624,0,0,1,21.617.492h1a28.893,28.893,0,0,1,13.8,3.518L39.33,5.6A20.084,20.084,0,0,1,49.05,8.235,3.88,3.88,0,0,1,51,11.595v5.047a.85.85,0,0,1-.85.85H47.3a5.081,5.081,0,0,1-9.59,0H15a5.081,5.081,0,0,1-9.59,0H5.1a.853.853,0,0,1-.316-.061l-2.753-1.1a3.214,3.214,0,0,1-2.031-3V6.442A.85.85,0,0,1,.729,5.6ZM39.169,16.472a3.4,3.4,0,1,0-.069-.68A3.4,3.4,0,0,0,39.169,16.472ZM23.8,15.792H37.4a5.1,5.1,0,1,1,10.2,0h1.7v-4.2A2.174,2.174,0,0,0,48.206,9.71,18.377,18.377,0,0,0,39.1,7.292H23.8Zm0-10.2H35.766L35.6,5.5A27.178,27.178,0,0,0,23.8,2.229Zm-1.7-3.4h-.481a26.9,26.9,0,0,0-10,1.916L13.1,5.592h9ZM6.869,16.472a3.4,3.4,0,1,0-.069-.68A3.4,3.4,0,0,0,6.869,16.472ZM1.7,8.142H4.25v1.7H1.7v3.485a1.521,1.521,0,0,0,.962,1.42l2.438.979c0-.078.01-.156.015-.234s.007-.17.015-.255.026-.17.039-.255.024-.17.041-.247.042-.163.064-.244.039-.162.065-.241.056-.155.085-.232.055-.157.085-.234.07-.146.105-.218.071-.151.11-.224.085-.135.123-.2.085-.146.133-.215.094-.125.14-.188.1-.137.154-.2.105-.117.158-.17.111-.126.17-.185.117-.107.175-.159.122-.115.186-.17.13-.1.194-.146.129-.1.2-.146.145-.085.218-.132.133-.085.2-.121.155-.075.233-.112.139-.071.212-.1.17-.063.255-.093.14-.055.213-.077c.1-.03.2-.051.3-.076.065-.015.127-.036.192-.049.1-.021.212-.033.318-.049.063-.008.123-.022.186-.028a5.181,5.181,0,0,1,.518-.026,5.1,5.1,0,0,1,5.1,5.1h6.8v-8.5H12.75a.849.849,0,0,1-.6-.249l-2.2-2.2A27.257,27.257,0,0,0,7.25,6.313a.852.852,0,0,1-.33.121L1.7,7.179Zm0,0" transform="translate(0 -0.492)" fill="#404040"/>
    </g>
    <path id="Path_2469" data-name="Path 2469" d="M442.929,461.159h-2.1v2.1h2.1Z" transform="translate(-399.461 -447.115)" fill="#404040"/>
    <path id="Path_2469-2" data-name="Path 2469" d="M442.929,461.159h-2.1v2.1h2.1Z" transform="translate(-431.461 -447.115)" fill="#404040"/>
  </g>
</svg>
