<svg xmlns="http://www.w3.org/2000/svg" width="38.706" height="33.024" viewBox="0 0 38.706 33.024">
  <g id="_01-horse" data-name=" 01-horse" transform="translate(-52.271 -233.128)">
    <path id="Path_2488" data-name="Path 2488" d="M69.163,243.372,71,240.646l.557-2.751,1.62,2.212H77.29l8.257,13.78-1.718,1.949Z" fill="#b7bfc7"/>
    <path id="Path_2487" data-name="Path 2487" d="M90.663,256.6c-.565-.706-1.131-1.458-1.693-2.238l1.587-1.587-2.027-2.027-1.217,1.217a149.828,149.828,0,0,1-7.956-13.745,1.434,1.434,0,0,0-1.279-.793H74.543L72.1,233.767a1.434,1.434,0,0,0-2.607.56c-.182,1.1-.7,4.012-1.046,5.268-.514.609-1.011,1.257-1.494,1.932L65.8,240.56l-1.84,2.2,1.409,1.178c-5.514,9.042-9.343,15.195-13.1,22.214H55.4A167.07,167.07,0,0,1,67.6,245.8l14.09,11.786-.542.537-6.537-4.669a1.434,1.434,0,0,0-2.267,1.169V266.1h2.867v-8.683l3.882,2.773-.6.6,2.027,2.027.933-.933,1.52,1.086a1.449,1.449,0,0,0,.38.193,5.651,5.651,0,0,0,4.281-.435,7.2,7.2,0,0,0,3.3-4.877A1.43,1.43,0,0,0,90.663,256.6Zm-21.5-13.229c.534-.76,1.088-1.478,1.66-2.14a1.4,1.4,0,0,0,.278-.494c.179-.551.388-1.475.582-2.434l.9,1.353a1.433,1.433,0,0,0,1.192.639H77.2a145.809,145.809,0,0,0,8.048,13.739l-1.521,1.521Zm17.125,16.82a2.82,2.82,0,0,1-1.863.28l-.91-.65,3.406-3.406c.347.474.7.94,1.046,1.391a4.053,4.053,0,0,1-1.678,2.386Z" fill="#404040"/>
  </g>
</svg>
